<?xml version="1.0" encoding="UTF-8" standalone="no"?>
<!-- Created with Inkscape (http://www.inkscape.org/) -->

<svg
   xmlns:dc="http://purl.org/dc/elements/1.1/"
   xmlns:cc="http://creativecommons.org/ns#"
   xmlns:rdf="http://www.w3.org/1999/02/22-rdf-syntax-ns#"
   xmlns:svg="http://www.w3.org/2000/svg"
   xmlns="http://www.w3.org/2000/svg"
   xmlns:sodipodi="http://sodipodi.sourceforge.net/DTD/sodipodi-0.dtd"
   xmlns:inkscape="http://www.inkscape.org/namespaces/inkscape"
   width="739.8938"
   height="231.44734"
   id="svg3340"
   version="1.1"
   inkscape:version="0.48.2 r9819"
   sodipodi:docname="New document 6">
  <defs
     id="defs3342" />
  <sodipodi:namedview
     id="base"
     pagecolor="#ffffff"
     bordercolor="#666666"
     borderopacity="1.0"
     inkscape:pageopacity="0.0"
     inkscape:pageshadow="2"
     inkscape:zoom="1.4142136"
     inkscape:cx="201.01611"
     inkscape:cy="-6.9157955"
     inkscape:document-units="px"
     inkscape:current-layer="layer1"
     showgrid="false"
     fit-margin-top="0"
     fit-margin-left="0"
     fit-margin-right="0"
     fit-margin-bottom="0"
     inkscape:window-width="1920"
     inkscape:window-height="1173"
     inkscape:window-x="1920"
     inkscape:window-y="0"
     inkscape:window-maximized="1" />
  <metadata
     id="metadata3345">
    <rdf:RDF>
      <cc:Work
         rdf:about="">
        <dc:format>image/svg+xml</dc:format>
        <dc:type
           rdf:resource="http://purl.org/dc/dcmitype/StillImage" />
        <dc:title></dc:title>
      </cc:Work>
    </rdf:RDF>
  </metadata>
  <g
     inkscape:label="Layer 1"
     inkscape:groupmode="layer"
     id="layer1"
     transform="translate(-24.180858,-30.305789)">
    <g
       id="g2946-4-2-6-6-9"
       transform="matrix(0.150498,0.09885172,-0.09885172,0.150498,48.615544,79.39909)"
       style="fill:#b3b3b3;stroke:#000000;stroke-width:6.94216156;stroke-miterlimit:4;stroke-opacity:1;stroke-dasharray:none">
      <path
         inkscape:connector-curvature="0"
         id="path3323-6-5-5-5-1"
         d="m 323.44346,522.30414 c -6.39886,0 -11.80148,3.7675 -13.59375,8.96875 l -37.34375,78.65625 -0.0625,0.15625 c -1.1381,2.06945 -1.8125,4.38327 -1.8125,6.84375 0,8.61126 7.8446,15.59375 17.5,15.59375 6.87189,0 12.79915,-3.54428 15.65625,-8.6875 l 0.0625,0.0312 0.25,-0.625 c 0.38205,-0.76757 0.69707,-1.5794 0.9375,-2.40625 l 31.0625,-79.96875 c 1.00745,-1.74793 1.59375,-3.74135 1.59375,-5.84375 0,-7.03683 -6.38885,-12.71875 -14.25,-12.71875 z"
         style="fill:#b3b3b3;stroke:#000000;stroke-width:6.94216156;stroke-linecap:butt;stroke-linejoin:miter;stroke-miterlimit:4;stroke-opacity:1;stroke-dasharray:none;display:inline" />
      <rect
         ry="7.7781744"
         y="663.52679"
         x="418.94543"
         height="58.336311"
         width="99.348503"
         id="rect3407-2-3-5-6-5"
         style="fill:#b3b3b3;stroke:#000000;stroke-width:6.94216156;stroke-linecap:butt;stroke-linejoin:miter;stroke-miterlimit:4;stroke-opacity:1;stroke-dasharray:none;display:inline" />
      <path
         inkscape:connector-curvature="0"
         id="path3413-5-6-0-1-5"
         d="m 377.34971,675.74164 c -15.05459,0 -27.28125,12.04682 -27.28125,26.90625 0,0.37153 0.0161,0.75711 0.0312,1.125 0.005,0.11312 -0.006,0.231 0,0.34375 l 0.625,45.3125 27.5625,14.875 89.34375,0 1.875,0 89.34375,0 27.5625,-14.875 0.625,-45.3125 c 0.006,-0.11275 -0.005,-0.23063 0,-0.34375 0.0151,-0.36789 0.0313,-0.75347 0.0312,-1.125 0,-14.85943 -12.22665,-26.90625 -27.28125,-26.90625 -8.9944,-10e-6 -16.96875,4.30284 -21.9375,10.9375 l -0.0625,-0.0312 -19.5,24.59375 0,2.84375 c -10e-6,4.03976 -3.03703,7.3531 -6.96875,7.75 -0.29294,0.0332 -0.60418,0.0312 -0.90625,0.0312 l -83.6875,0 c -1.34659,0 -2.61646,-0.34018 -3.71875,-0.9375 -0.44108,-0.23909 -0.86595,-0.52703 -1.25,-0.84375 -0.3779,-0.31162 -0.71853,-0.6543 -1.03125,-1.03125 -0.005,-0.006 0.005,-0.0251 0,-0.0312 -1.10785,-1.3435 -1.78125,-3.05226 -1.78125,-4.9375 l 0,-2.71875 -19.59375,-24.71875 -0.0625,0.0312 c -4.96874,-6.63466 -12.9431,-10.93751 -21.9375,-10.9375 z"
         style="fill:#b3b3b3;stroke:#000000;stroke-width:6.94216156;stroke-linecap:butt;stroke-linejoin:miter;stroke-miterlimit:4;stroke-opacity:1;stroke-dasharray:none;display:inline" />
      <path
         inkscape:connector-curvature="0"
         sodipodi:nodetypes="cccccscccssscc"
         id="path3379-1-5-8-9-3"
         d="m 308.78721,610.49164 -4.09375,10.53125 c -0.24043,0.82685 -0.55545,1.63868 -0.9375,2.40625 l -0.25,0.625 -0.0625,-0.0312 c -2.8571,5.14322 -8.78436,8.6875 -15.65625,8.6875 -4.02413,0 -7.72926,-1.21184 -10.6875,-3.25 l 73.0625,78.96875 -0.0625,-4.3125 c -0.006,-0.11275 0.005,-0.23063 0,-0.34375 -0.0151,-0.36789 -0.0312,-0.75347 -0.0312,-1.125 0,-14.85943 12.22666,-26.90625 27.28125,-26.90625 3.20154,0 6.27148,0.56106 9.125,1.5625 l -77.68755,-66.81255 z"
         style="fill:#b3b3b3;stroke:#000000;stroke-width:6.94216156;stroke-linecap:butt;stroke-linejoin:miter;stroke-miterlimit:4;stroke-opacity:1;stroke-dasharray:none;display:inline" />
      <path
         inkscape:connector-curvature="0"
         style="fill:#b3b3b3;stroke:#000000;stroke-width:6.94216156;stroke-linecap:butt;stroke-linejoin:miter;stroke-miterlimit:4;stroke-opacity:1;stroke-dasharray:none;display:inline"
         d="m 613.69939,522.30414 c 6.39886,0 11.80148,3.7675 13.59375,8.96875 l 37.34375,78.65625 0.0625,0.15625 c 1.1381,2.06945 1.8125,4.38327 1.8125,6.84375 0,8.61126 -7.8446,15.59375 -17.5,15.59375 -6.87189,0 -12.79915,-3.54428 -15.65625,-8.6875 l -0.0625,0.0312 -0.25,-0.625 c -0.38205,-0.76757 -0.69707,-1.5794 -0.9375,-2.40625 l -31.0625,-79.9687 c -1.00745,-1.74793 -1.59375,-3.74135 -1.59375,-5.84375 0,-7.03683 6.38885,-12.71875 14.25,-12.71875 z"
         id="path3432-6-5-7-6-2" />
      <path
         inkscape:connector-curvature="0"
         sodipodi:nodetypes="cccccscccssscc"
         style="fill:#b3b3b3;stroke:#000000;stroke-width:6.94216156;stroke-linecap:butt;stroke-linejoin:miter;stroke-miterlimit:4;stroke-opacity:1;stroke-dasharray:none;display:inline"
         d="m 628.35564,610.49164 4.09375,10.53125 c 0.24043,0.82685 0.55545,1.63868 0.9375,2.40625 l 0.25,0.625 0.0625,-0.0312 c 2.8571,5.14322 8.78436,8.6875 15.65625,8.6875 4.02413,0 7.72926,-1.21184 10.6875,-3.25 l -73.0625,78.96875 0.0625,-4.3125 c 0.006,-0.11275 -0.005,-0.23063 0,-0.34375 0.0151,-0.36789 0.0312,-0.75347 0.0312,-1.125 0,-14.85943 -12.22666,-26.90625 -27.28125,-26.90625 -3.20154,0 -6.27148,0.56106 -9.125,1.5625 l 77.6875,-66.8125 z"
         id="path3436-5-4-1-9-5" />
      <path
         inkscape:connector-curvature="0"
         id="rect3443-0-0-1-0-1"
         d="m 392.52345,764.45246 c -1.86497,1.78605 -3.11917,4.98914 -3.11917,8.71198 l 0,56.2319 c 0,5.66115 2.88941,10.19703 6.45668,10.19698 l 145.88375,0 c 3.56729,0 6.45668,-4.53582 6.45668,-10.19698 l 0,-56.2319 c 0,-3.70739 -1.23593,-6.92129 -3.08798,-8.71198 l -75.60876,0 -1.87151,0 -75.10969,0 z"
         style="fill:#b3b3b3;stroke:#000000;stroke-width:6.94216156;stroke-linecap:butt;stroke-linejoin:miter;stroke-miterlimit:4;stroke-opacity:1;stroke-dasharray:none;display:inline" />
    </g>
    <path
       sodipodi:type="arc"
       style="fill:#000000"
       id="path3449-99-9-0"
       sodipodi:cx="375.62003"
       sodipodi:cy="592.89587"
       sodipodi:rx="20.820885"
       sodipodi:ry="19.132706"
       d="m 396.44091,592.89587 c 0,10.56671 -9.32183,19.13271 -20.82088,19.13271 -11.49906,0 -20.82089,-8.566 -20.82089,-19.13271 0,-10.5667 9.32183,-19.1327 20.82089,-19.1327 11.49905,0 20.82088,8.566 20.82088,19.1327 z"
       transform="translate(-252.42112,-420.94947)" />
    <path
       sodipodi:type="arc"
       style="fill:#008000;fill-rule:evenodd;stroke:#000000;stroke-width:1px;stroke-linecap:butt;stroke-linejoin:miter;stroke-opacity:1"
       id="path3445-7-0-9"
       sodipodi:cx="285.44308"
       sodipodi:cy="521.42963"
       sodipodi:rx="12.520667"
       sodipodi:ry="12.661348"
       d="m 297.96375,521.42963 c 0,6.99267 -5.60569,12.66134 -12.52067,12.66134 -6.91497,0 -12.52066,-5.66867 -12.52066,-12.66134 0,-6.99267 5.60569,-12.66135 12.52066,-12.66135 6.91498,0 12.52067,5.66868 12.52067,12.66135 z"
       transform="matrix(1.4029318,0,0,1.2428992,-294.74289,-601.43657)" />
    <path
       sodipodi:type="arc"
       style="fill:#000000"
       id="path3449-99-9-0-1"
       sodipodi:cx="375.62003"
       sodipodi:cy="592.89587"
       sodipodi:rx="20.820885"
       sodipodi:ry="19.132706"
       d="m 396.44091,592.89587 c 0,10.56671 -9.32183,19.13271 -20.82088,19.13271 -11.49906,0 -20.82089,-8.566 -20.82089,-19.13271 0,-10.5667 9.32183,-19.1327 20.82089,-19.1327 11.49905,0 20.82088,8.566 20.82088,19.1327 z"
       transform="translate(-68.526707,-421.6689)" />
    <path
       sodipodi:type="arc"
       style="fill:#008000;fill-rule:evenodd;stroke:#000000;stroke-width:1px;stroke-linecap:butt;stroke-linejoin:miter;stroke-opacity:1"
       id="path3445-7-0-9-6"
       sodipodi:cx="285.44308"
       sodipodi:cy="521.42963"
       sodipodi:rx="12.520667"
       sodipodi:ry="12.661348"
       d="m 297.96375,521.42963 c 0,6.99267 -5.60569,12.66134 -12.52067,12.66134 -6.91497,0 -12.52066,-5.66867 -12.52066,-12.66134 0,-6.99267 5.60569,-12.66135 12.52066,-12.66135 6.91498,0 12.52067,5.66868 12.52067,12.66135 z"
       transform="matrix(1.4029318,0,0,1.2428992,-109.43426,-600.74178)" />
    <g
       id="g2946-4-2-6-6-9-8"
       transform="matrix(0.150498,0.09885172,-0.09885172,0.150498,224.98071,79.262489)"
       style="fill:#b3b3b3;stroke:#000000;stroke-width:6.94216156;stroke-miterlimit:4;stroke-opacity:1;stroke-dasharray:none">
      <path
         inkscape:connector-curvature="0"
         id="path3323-6-5-5-5-1-5"
         d="m 323.44346,522.30414 c -6.39886,0 -11.80148,3.7675 -13.59375,8.96875 l -37.34375,78.65625 -0.0625,0.15625 c -1.1381,2.06945 -1.8125,4.38327 -1.8125,6.84375 0,8.61126 7.8446,15.59375 17.5,15.59375 6.87189,0 12.79915,-3.54428 15.65625,-8.6875 l 0.0625,0.0312 0.25,-0.625 c 0.38205,-0.76757 0.69707,-1.5794 0.9375,-2.40625 l 31.0625,-79.96875 c 1.00745,-1.74793 1.59375,-3.74135 1.59375,-5.84375 0,-7.03683 -6.38885,-12.71875 -14.25,-12.71875 z"
         style="fill:#b3b3b3;stroke:#000000;stroke-width:6.94216156;stroke-linecap:butt;stroke-linejoin:miter;stroke-miterlimit:4;stroke-opacity:1;stroke-dasharray:none;display:inline" />
      <rect
         ry="7.7781744"
         y="663.52679"
         x="418.94543"
         height="58.336311"
         width="99.348503"
         id="rect3407-2-3-5-6-5-6"
         style="fill:#b3b3b3;stroke:#000000;stroke-width:6.94216156;stroke-linecap:butt;stroke-linejoin:miter;stroke-miterlimit:4;stroke-opacity:1;stroke-dasharray:none;display:inline" />
      <path
         inkscape:connector-curvature="0"
         id="path3413-5-6-0-1-5-7"
         d="m 377.34971,675.74164 c -15.05459,0 -27.28125,12.04682 -27.28125,26.90625 0,0.37153 0.0161,0.75711 0.0312,1.125 0.005,0.11312 -0.006,0.231 0,0.34375 l 0.625,45.3125 27.5625,14.875 89.34375,0 1.875,0 89.34375,0 27.5625,-14.875 0.625,-45.3125 c 0.006,-0.11275 -0.005,-0.23063 0,-0.34375 0.0151,-0.36789 0.0313,-0.75347 0.0312,-1.125 0,-14.85943 -12.22665,-26.90625 -27.28125,-26.90625 -8.9944,-10e-6 -16.96875,4.30284 -21.9375,10.9375 l -0.0625,-0.0312 -19.5,24.59375 0,2.84375 c -10e-6,4.03976 -3.03703,7.3531 -6.96875,7.75 -0.29294,0.0332 -0.60418,0.0312 -0.90625,0.0312 l -83.6875,0 c -1.34659,0 -2.61646,-0.34018 -3.71875,-0.9375 -0.44108,-0.23909 -0.86595,-0.52703 -1.25,-0.84375 -0.3779,-0.31162 -0.71853,-0.6543 -1.03125,-1.03125 -0.005,-0.006 0.005,-0.0251 0,-0.0312 -1.10785,-1.3435 -1.78125,-3.05226 -1.78125,-4.9375 l 0,-2.71875 -19.59375,-24.71875 -0.0625,0.0312 c -4.96874,-6.63466 -12.9431,-10.93751 -21.9375,-10.9375 z"
         style="fill:#b3b3b3;stroke:#000000;stroke-width:6.94216156;stroke-linecap:butt;stroke-linejoin:miter;stroke-miterlimit:4;stroke-opacity:1;stroke-dasharray:none;display:inline" />
      <path
         inkscape:connector-curvature="0"
         sodipodi:nodetypes="cccccscccssscc"
         id="path3379-1-5-8-9-3-1"
         d="m 308.78721,610.49164 -4.09375,10.53125 c -0.24043,0.82685 -0.55545,1.63868 -0.9375,2.40625 l -0.25,0.625 -0.0625,-0.0312 c -2.8571,5.14322 -8.78436,8.6875 -15.65625,8.6875 -4.02413,0 -7.72926,-1.21184 -10.6875,-3.25 l 73.0625,78.96875 -0.0625,-4.3125 c -0.006,-0.11275 0.005,-0.23063 0,-0.34375 -0.0151,-0.36789 -0.0312,-0.75347 -0.0312,-1.125 0,-14.85943 12.22666,-26.90625 27.28125,-26.90625 3.20154,0 6.27148,0.56106 9.125,1.5625 l -77.68755,-66.81255 z"
         style="fill:#b3b3b3;stroke:#000000;stroke-width:6.94216156;stroke-linecap:butt;stroke-linejoin:miter;stroke-miterlimit:4;stroke-opacity:1;stroke-dasharray:none;display:inline" />
      <path
         inkscape:connector-curvature="0"
         style="fill:#b3b3b3;stroke:#000000;stroke-width:6.94216156;stroke-linecap:butt;stroke-linejoin:miter;stroke-miterlimit:4;stroke-opacity:1;stroke-dasharray:none;display:inline"
         d="m 613.69939,522.30414 c 6.39886,0 11.80148,3.7675 13.59375,8.96875 l 37.34375,78.65625 0.0625,0.15625 c 1.1381,2.06945 1.8125,4.38327 1.8125,6.84375 0,8.61126 -7.8446,15.59375 -17.5,15.59375 -6.87189,0 -12.79915,-3.54428 -15.65625,-8.6875 l -0.0625,0.0312 -0.25,-0.625 c -0.38205,-0.76757 -0.69707,-1.5794 -0.9375,-2.40625 l -31.0625,-79.9687 c -1.00745,-1.74793 -1.59375,-3.74135 -1.59375,-5.84375 0,-7.03683 6.38885,-12.71875 14.25,-12.71875 z"
         id="path3432-6-5-7-6-2-7" />
      <path
         inkscape:connector-curvature="0"
         sodipodi:nodetypes="cccccscccssscc"
         style="fill:#b3b3b3;stroke:#000000;stroke-width:6.94216156;stroke-linecap:butt;stroke-linejoin:miter;stroke-miterlimit:4;stroke-opacity:1;stroke-dasharray:none;display:inline"
         d="m 628.35564,610.49164 4.09375,10.53125 c 0.24043,0.82685 0.55545,1.63868 0.9375,2.40625 l 0.25,0.625 0.0625,-0.0312 c 2.8571,5.14322 8.78436,8.6875 15.65625,8.6875 4.02413,0 7.72926,-1.21184 10.6875,-3.25 l -73.0625,78.96875 0.0625,-4.3125 c 0.006,-0.11275 -0.005,-0.23063 0,-0.34375 0.0151,-0.36789 0.0312,-0.75347 0.0312,-1.125 0,-14.85943 -12.22666,-26.90625 -27.28125,-26.90625 -3.20154,0 -6.27148,0.56106 -9.125,1.5625 l 77.6875,-66.8125 z"
         id="path3436-5-4-1-9-5-6" />
      <path
         inkscape:connector-curvature="0"
         id="rect3443-0-0-1-0-1-6"
         d="m 392.52345,764.45246 c -1.86497,1.78605 -3.11917,4.98914 -3.11917,8.71198 l 0,56.2319 c 0,5.66115 2.88941,10.19703 6.45668,10.19698 l 145.88375,0 c 3.56729,0 6.45668,-4.53582 6.45668,-10.19698 l 0,-56.2319 c 0,-3.70739 -1.23593,-6.92129 -3.08798,-8.71198 l -75.60876,0 -1.87151,0 -75.10969,0 z"
         style="fill:#b3b3b3;stroke:#000000;stroke-width:6.94216156;stroke-linecap:butt;stroke-linejoin:miter;stroke-miterlimit:4;stroke-opacity:1;stroke-dasharray:none;display:inline" />
    </g>
    <g
       id="g2946-4-2-6-6-9-7"
       transform="matrix(0.16740396,0.06631156,-0.06631156,0.16740396,226.18235,58.653063)"
       style="fill:#b3b3b3;stroke:#000000;stroke-width:6.94216156;stroke-miterlimit:4;stroke-opacity:1;stroke-dasharray:none">
      <path
         inkscape:connector-curvature="0"
         id="path3323-6-5-5-5-1-4"
         d="m 323.44346,522.30414 c -6.39886,0 -11.80148,3.7675 -13.59375,8.96875 l -37.34375,78.65625 -0.0625,0.15625 c -1.1381,2.06945 -1.8125,4.38327 -1.8125,6.84375 0,8.61126 7.8446,15.59375 17.5,15.59375 6.87189,0 12.79915,-3.54428 15.65625,-8.6875 l 0.0625,0.0312 0.25,-0.625 c 0.38205,-0.76757 0.69707,-1.5794 0.9375,-2.40625 l 31.0625,-79.96875 c 1.00745,-1.74793 1.59375,-3.74135 1.59375,-5.84375 0,-7.03683 -6.38885,-12.71875 -14.25,-12.71875 z"
         style="fill:#b3b3b3;stroke:#000000;stroke-width:6.94216156;stroke-linecap:butt;stroke-linejoin:miter;stroke-miterlimit:4;stroke-opacity:1;stroke-dasharray:none;display:inline" />
      <rect
         ry="7.7781744"
         y="663.52679"
         x="418.94543"
         height="58.336311"
         width="99.348503"
         id="rect3407-2-3-5-6-5-4"
         style="fill:#b3b3b3;stroke:#000000;stroke-width:6.94216156;stroke-linecap:butt;stroke-linejoin:miter;stroke-miterlimit:4;stroke-opacity:1;stroke-dasharray:none;display:inline" />
      <path
         inkscape:connector-curvature="0"
         id="path3413-5-6-0-1-5-9"
         d="m 377.34971,675.74164 c -15.05459,0 -27.28125,12.04682 -27.28125,26.90625 0,0.37153 0.0161,0.75711 0.0312,1.125 0.005,0.11312 -0.006,0.231 0,0.34375 l 0.625,45.3125 27.5625,14.875 89.34375,0 1.875,0 89.34375,0 27.5625,-14.875 0.625,-45.3125 c 0.006,-0.11275 -0.005,-0.23063 0,-0.34375 0.0151,-0.36789 0.0313,-0.75347 0.0312,-1.125 0,-14.85943 -12.22665,-26.90625 -27.28125,-26.90625 -8.9944,-10e-6 -16.96875,4.30284 -21.9375,10.9375 l -0.0625,-0.0312 -19.5,24.59375 0,2.84375 c -10e-6,4.03976 -3.03703,7.3531 -6.96875,7.75 -0.29294,0.0332 -0.60418,0.0312 -0.90625,0.0312 l -83.6875,0 c -1.34659,0 -2.61646,-0.34018 -3.71875,-0.9375 -0.44108,-0.23909 -0.86595,-0.52703 -1.25,-0.84375 -0.3779,-0.31162 -0.71853,-0.6543 -1.03125,-1.03125 -0.005,-0.006 0.005,-0.0251 0,-0.0312 -1.10785,-1.3435 -1.78125,-3.05226 -1.78125,-4.9375 l 0,-2.71875 -19.59375,-24.71875 -0.0625,0.0312 c -4.96874,-6.63466 -12.9431,-10.93751 -21.9375,-10.9375 z"
         style="fill:#b3b3b3;stroke:#000000;stroke-width:6.94216156;stroke-linecap:butt;stroke-linejoin:miter;stroke-miterlimit:4;stroke-opacity:1;stroke-dasharray:none;display:inline" />
      <path
         inkscape:connector-curvature="0"
         sodipodi:nodetypes="cccccscccssscc"
         id="path3379-1-5-8-9-3-9"
         d="m 308.78721,610.49164 -4.09375,10.53125 c -0.24043,0.82685 -0.55545,1.63868 -0.9375,2.40625 l -0.25,0.625 -0.0625,-0.0312 c -2.8571,5.14322 -8.78436,8.6875 -15.65625,8.6875 -4.02413,0 -7.72926,-1.21184 -10.6875,-3.25 l 73.0625,78.96875 -0.0625,-4.3125 c -0.006,-0.11275 0.005,-0.23063 0,-0.34375 -0.0151,-0.36789 -0.0312,-0.75347 -0.0312,-1.125 0,-14.85943 12.22666,-26.90625 27.28125,-26.90625 3.20154,0 6.27148,0.56106 9.125,1.5625 l -77.68755,-66.81255 z"
         style="fill:#b3b3b3;stroke:#000000;stroke-width:6.94216156;stroke-linecap:butt;stroke-linejoin:miter;stroke-miterlimit:4;stroke-opacity:1;stroke-dasharray:none;display:inline" />
      <path
         inkscape:connector-curvature="0"
         style="fill:#b3b3b3;stroke:#000000;stroke-width:6.94216156;stroke-linecap:butt;stroke-linejoin:miter;stroke-miterlimit:4;stroke-opacity:1;stroke-dasharray:none;display:inline"
         d="m 613.69939,522.30414 c 6.39886,0 11.80148,3.7675 13.59375,8.96875 l 37.34375,78.65625 0.0625,0.15625 c 1.1381,2.06945 1.8125,4.38327 1.8125,6.84375 0,8.61126 -7.8446,15.59375 -17.5,15.59375 -6.87189,0 -12.79915,-3.54428 -15.65625,-8.6875 l -0.0625,0.0312 -0.25,-0.625 c -0.38205,-0.76757 -0.69707,-1.5794 -0.9375,-2.40625 l -31.0625,-79.9687 c -1.00745,-1.74793 -1.59375,-3.74135 -1.59375,-5.84375 0,-7.03683 6.38885,-12.71875 14.25,-12.71875 z"
         id="path3432-6-5-7-6-2-1" />
      <path
         inkscape:connector-curvature="0"
         sodipodi:nodetypes="cccccscccssscc"
         style="fill:#b3b3b3;stroke:#000000;stroke-width:6.94216156;stroke-linecap:butt;stroke-linejoin:miter;stroke-miterlimit:4;stroke-opacity:1;stroke-dasharray:none;display:inline"
         d="m 628.35564,610.49164 4.09375,10.53125 c 0.24043,0.82685 0.55545,1.63868 0.9375,2.40625 l 0.25,0.625 0.0625,-0.0312 c 2.8571,5.14322 8.78436,8.6875 15.65625,8.6875 4.02413,0 7.72926,-1.21184 10.6875,-3.25 l -73.0625,78.96875 0.0625,-4.3125 c 0.006,-0.11275 -0.005,-0.23063 0,-0.34375 0.0151,-0.36789 0.0312,-0.75347 0.0312,-1.125 0,-14.85943 -12.22666,-26.90625 -27.28125,-26.90625 -3.20154,0 -6.27148,0.56106 -9.125,1.5625 l 77.6875,-66.8125 z"
         id="path3436-5-4-1-9-5-61" />
      <path
         inkscape:connector-curvature="0"
         id="rect3443-0-0-1-0-1-4"
         d="m 392.52345,764.45246 c -1.86497,1.78605 -3.11917,4.98914 -3.11917,8.71198 l 0,56.2319 c 0,5.66115 2.88941,10.19703 6.45668,10.19698 l 145.88375,0 c 3.56729,0 6.45668,-4.53582 6.45668,-10.19698 l 0,-56.2319 c 0,-3.70739 -1.23593,-6.92129 -3.08798,-8.71198 l -75.60876,0 -1.87151,0 -75.10969,0 z"
         style="fill:#b3b3b3;stroke:#000000;stroke-width:6.94216156;stroke-linecap:butt;stroke-linejoin:miter;stroke-miterlimit:4;stroke-opacity:1;stroke-dasharray:none;display:inline" />
    </g>
    <path
       sodipodi:type="arc"
       style="fill:#000000"
       id="path3449-99-9-0-1-3"
       sodipodi:cx="375.62003"
       sodipodi:cy="592.89587"
       sodipodi:rx="20.820885"
       sodipodi:ry="19.132706"
       d="m 396.44091,592.89587 c 0,10.56671 -9.32183,19.13271 -20.82088,19.13271 -11.49906,0 -20.82089,-8.566 -20.82089,-19.13271 0,-10.5667 9.32183,-19.1327 20.82089,-19.1327 11.49905,0 20.82088,8.566 20.82088,19.1327 z"
       transform="translate(156.56233,-446.70906)" />
    <path
       sodipodi:type="arc"
       style="fill:#008000;fill-rule:evenodd;stroke:#000000;stroke-width:1px;stroke-linecap:butt;stroke-linejoin:miter;stroke-opacity:1"
       id="path3445-7-0-9-6-1"
       sodipodi:cx="285.44308"
       sodipodi:cy="521.42963"
       sodipodi:rx="12.520667"
       sodipodi:ry="12.661348"
       d="m 297.96375,521.42963 c 0,6.99267 -5.60569,12.66134 -12.52067,12.66134 -6.91497,0 -12.52066,-5.66867 -12.52066,-12.66134 0,-6.99267 5.60569,-12.66135 12.52066,-12.66135 6.91498,0 12.52067,5.66868 12.52067,12.66135 z"
       transform="matrix(1.4029318,0,0,1.2428992,81.006552,-598.91188)" />
    <g
       id="g2946-4-2-6-6-9-8-7"
       transform="matrix(0.150498,0.09885172,-0.09885172,0.150498,415.42152,81.09239)"
       style="fill:#b3b3b3;stroke:#000000;stroke-width:6.94216156;stroke-miterlimit:4;stroke-opacity:1;stroke-dasharray:none">
      <path
         inkscape:connector-curvature="0"
         id="path3323-6-5-5-5-1-5-2"
         d="m 323.44346,522.30414 c -6.39886,0 -11.80148,3.7675 -13.59375,8.96875 l -37.34375,78.65625 -0.0625,0.15625 c -1.1381,2.06945 -1.8125,4.38327 -1.8125,6.84375 0,8.61126 7.8446,15.59375 17.5,15.59375 6.87189,0 12.79915,-3.54428 15.65625,-8.6875 l 0.0625,0.0312 0.25,-0.625 c 0.38205,-0.76757 0.69707,-1.5794 0.9375,-2.40625 l 31.0625,-79.96875 c 1.00745,-1.74793 1.59375,-3.74135 1.59375,-5.84375 0,-7.03683 -6.38885,-12.71875 -14.25,-12.71875 z"
         style="fill:#b3b3b3;stroke:#000000;stroke-width:6.94216156;stroke-linecap:butt;stroke-linejoin:miter;stroke-miterlimit:4;stroke-opacity:1;stroke-dasharray:none;display:inline" />
      <rect
         ry="7.7781744"
         y="663.52679"
         x="418.94543"
         height="58.336311"
         width="99.348503"
         id="rect3407-2-3-5-6-5-6-7"
         style="fill:#b3b3b3;stroke:#000000;stroke-width:6.94216156;stroke-linecap:butt;stroke-linejoin:miter;stroke-miterlimit:4;stroke-opacity:1;stroke-dasharray:none;display:inline" />
      <path
         inkscape:connector-curvature="0"
         id="path3413-5-6-0-1-5-7-3"
         d="m 377.34971,675.74164 c -15.05459,0 -27.28125,12.04682 -27.28125,26.90625 0,0.37153 0.0161,0.75711 0.0312,1.125 0.005,0.11312 -0.006,0.231 0,0.34375 l 0.625,45.3125 27.5625,14.875 89.34375,0 1.875,0 89.34375,0 27.5625,-14.875 0.625,-45.3125 c 0.006,-0.11275 -0.005,-0.23063 0,-0.34375 0.0151,-0.36789 0.0313,-0.75347 0.0312,-1.125 0,-14.85943 -12.22665,-26.90625 -27.28125,-26.90625 -8.9944,-10e-6 -16.96875,4.30284 -21.9375,10.9375 l -0.0625,-0.0312 -19.5,24.59375 0,2.84375 c -10e-6,4.03976 -3.03703,7.3531 -6.96875,7.75 -0.29294,0.0332 -0.60418,0.0312 -0.90625,0.0312 l -83.6875,0 c -1.34659,0 -2.61646,-0.34018 -3.71875,-0.9375 -0.44108,-0.23909 -0.86595,-0.52703 -1.25,-0.84375 -0.3779,-0.31162 -0.71853,-0.6543 -1.03125,-1.03125 -0.005,-0.006 0.005,-0.0251 0,-0.0312 -1.10785,-1.3435 -1.78125,-3.05226 -1.78125,-4.9375 l 0,-2.71875 -19.59375,-24.71875 -0.0625,0.0312 c -4.96874,-6.63466 -12.9431,-10.93751 -21.9375,-10.9375 z"
         style="fill:#b3b3b3;stroke:#000000;stroke-width:6.94216156;stroke-linecap:butt;stroke-linejoin:miter;stroke-miterlimit:4;stroke-opacity:1;stroke-dasharray:none;display:inline" />
      <path
         inkscape:connector-curvature="0"
         sodipodi:nodetypes="cccccscccssscc"
         id="path3379-1-5-8-9-3-1-9"
         d="m 308.78721,610.49164 -4.09375,10.53125 c -0.24043,0.82685 -0.55545,1.63868 -0.9375,2.40625 l -0.25,0.625 -0.0625,-0.0312 c -2.8571,5.14322 -8.78436,8.6875 -15.65625,8.6875 -4.02413,0 -7.72926,-1.21184 -10.6875,-3.25 l 73.0625,78.96875 -0.0625,-4.3125 c -0.006,-0.11275 0.005,-0.23063 0,-0.34375 -0.0151,-0.36789 -0.0312,-0.75347 -0.0312,-1.125 0,-14.85943 12.22666,-26.90625 27.28125,-26.90625 3.20154,0 6.27148,0.56106 9.125,1.5625 l -77.68755,-66.81255 z"
         style="fill:#b3b3b3;stroke:#000000;stroke-width:6.94216156;stroke-linecap:butt;stroke-linejoin:miter;stroke-miterlimit:4;stroke-opacity:1;stroke-dasharray:none;display:inline" />
      <path
         inkscape:connector-curvature="0"
         style="fill:#b3b3b3;stroke:#000000;stroke-width:6.94216156;stroke-linecap:butt;stroke-linejoin:miter;stroke-miterlimit:4;stroke-opacity:1;stroke-dasharray:none;display:inline"
         d="m 613.69939,522.30414 c 6.39886,0 11.80148,3.7675 13.59375,8.96875 l 37.34375,78.65625 0.0625,0.15625 c 1.1381,2.06945 1.8125,4.38327 1.8125,6.84375 0,8.61126 -7.8446,15.59375 -17.5,15.59375 -6.87189,0 -12.79915,-3.54428 -15.65625,-8.6875 l -0.0625,0.0312 -0.25,-0.625 c -0.38205,-0.76757 -0.69707,-1.5794 -0.9375,-2.40625 l -31.0625,-79.9687 c -1.00745,-1.74793 -1.59375,-3.74135 -1.59375,-5.84375 0,-7.03683 6.38885,-12.71875 14.25,-12.71875 z"
         id="path3432-6-5-7-6-2-7-0" />
      <path
         inkscape:connector-curvature="0"
         sodipodi:nodetypes="cccccscccssscc"
         style="fill:#b3b3b3;stroke:#000000;stroke-width:6.94216156;stroke-linecap:butt;stroke-linejoin:miter;stroke-miterlimit:4;stroke-opacity:1;stroke-dasharray:none;display:inline"
         d="m 628.35564,610.49164 4.09375,10.53125 c 0.24043,0.82685 0.55545,1.63868 0.9375,2.40625 l 0.25,0.625 0.0625,-0.0312 c 2.8571,5.14322 8.78436,8.6875 15.65625,8.6875 4.02413,0 7.72926,-1.21184 10.6875,-3.25 l -73.0625,78.96875 0.0625,-4.3125 c 0.006,-0.11275 -0.005,-0.23063 0,-0.34375 0.0151,-0.36789 0.0312,-0.75347 0.0312,-1.125 0,-14.85943 -12.22666,-26.90625 -27.28125,-26.90625 -3.20154,0 -6.27148,0.56106 -9.125,1.5625 l 77.6875,-66.8125 z"
         id="path3436-5-4-1-9-5-6-0" />
      <path
         inkscape:connector-curvature="0"
         id="rect3443-0-0-1-0-1-6-7"
         d="m 392.52345,764.45246 c -1.86497,1.78605 -3.11917,4.98914 -3.11917,8.71198 l 0,56.2319 c 0,5.66115 2.88941,10.19703 6.45668,10.19698 l 145.88375,0 c 3.56729,0 6.45668,-4.53582 6.45668,-10.19698 l 0,-56.2319 c 0,-3.70739 -1.23593,-6.92129 -3.08798,-8.71198 l -75.60876,0 -1.87151,0 -75.10969,0 z"
         style="fill:#b3b3b3;stroke:#000000;stroke-width:6.94216156;stroke-linecap:butt;stroke-linejoin:miter;stroke-miterlimit:4;stroke-opacity:1;stroke-dasharray:none;display:inline" />
    </g>
    <g
       id="g2946-4-2-6-6-9-7-8"
       transform="matrix(0.17921919,0.01737215,-0.01737215,0.17921919,406.89259,39.677935)"
       style="fill:#b3b3b3;stroke:#000000;stroke-width:6.94216156;stroke-miterlimit:4;stroke-opacity:1;stroke-dasharray:none">
      <path
         inkscape:connector-curvature="0"
         id="path3323-6-5-5-5-1-4-8"
         d="m 323.44346,522.30414 c -6.39886,0 -11.80148,3.7675 -13.59375,8.96875 l -37.34375,78.65625 -0.0625,0.15625 c -1.1381,2.06945 -1.8125,4.38327 -1.8125,6.84375 0,8.61126 7.8446,15.59375 17.5,15.59375 6.87189,0 12.79915,-3.54428 15.65625,-8.6875 l 0.0625,0.0312 0.25,-0.625 c 0.38205,-0.76757 0.69707,-1.5794 0.9375,-2.40625 l 31.0625,-79.96875 c 1.00745,-1.74793 1.59375,-3.74135 1.59375,-5.84375 0,-7.03683 -6.38885,-12.71875 -14.25,-12.71875 z"
         style="fill:#b3b3b3;stroke:#000000;stroke-width:6.94216156;stroke-linecap:butt;stroke-linejoin:miter;stroke-miterlimit:4;stroke-opacity:1;stroke-dasharray:none;display:inline" />
      <rect
         ry="7.7781744"
         y="663.52679"
         x="418.94543"
         height="58.336311"
         width="99.348503"
         id="rect3407-2-3-5-6-5-4-4"
         style="fill:#b3b3b3;stroke:#000000;stroke-width:6.94216156;stroke-linecap:butt;stroke-linejoin:miter;stroke-miterlimit:4;stroke-opacity:1;stroke-dasharray:none;display:inline" />
      <path
         inkscape:connector-curvature="0"
         id="path3413-5-6-0-1-5-9-3"
         d="m 377.34971,675.74164 c -15.05459,0 -27.28125,12.04682 -27.28125,26.90625 0,0.37153 0.0161,0.75711 0.0312,1.125 0.005,0.11312 -0.006,0.231 0,0.34375 l 0.625,45.3125 27.5625,14.875 89.34375,0 1.875,0 89.34375,0 27.5625,-14.875 0.625,-45.3125 c 0.006,-0.11275 -0.005,-0.23063 0,-0.34375 0.0151,-0.36789 0.0313,-0.75347 0.0312,-1.125 0,-14.85943 -12.22665,-26.90625 -27.28125,-26.90625 -8.9944,-10e-6 -16.96875,4.30284 -21.9375,10.9375 l -0.0625,-0.0312 -19.5,24.59375 0,2.84375 c -10e-6,4.03976 -3.03703,7.3531 -6.96875,7.75 -0.29294,0.0332 -0.60418,0.0312 -0.90625,0.0312 l -83.6875,0 c -1.34659,0 -2.61646,-0.34018 -3.71875,-0.9375 -0.44108,-0.23909 -0.86595,-0.52703 -1.25,-0.84375 -0.3779,-0.31162 -0.71853,-0.6543 -1.03125,-1.03125 -0.005,-0.006 0.005,-0.0251 0,-0.0312 -1.10785,-1.3435 -1.78125,-3.05226 -1.78125,-4.9375 l 0,-2.71875 -19.59375,-24.71875 -0.0625,0.0312 c -4.96874,-6.63466 -12.9431,-10.93751 -21.9375,-10.9375 z"
         style="fill:#b3b3b3;stroke:#000000;stroke-width:6.94216156;stroke-linecap:butt;stroke-linejoin:miter;stroke-miterlimit:4;stroke-opacity:1;stroke-dasharray:none;display:inline" />
      <path
         inkscape:connector-curvature="0"
         sodipodi:nodetypes="cccccscccssscc"
         id="path3379-1-5-8-9-3-9-2"
         d="m 308.78721,610.49164 -4.09375,10.53125 c -0.24043,0.82685 -0.55545,1.63868 -0.9375,2.40625 l -0.25,0.625 -0.0625,-0.0312 c -2.8571,5.14322 -8.78436,8.6875 -15.65625,8.6875 -4.02413,0 -7.72926,-1.21184 -10.6875,-3.25 l 73.0625,78.96875 -0.0625,-4.3125 c -0.006,-0.11275 0.005,-0.23063 0,-0.34375 -0.0151,-0.36789 -0.0312,-0.75347 -0.0312,-1.125 0,-14.85943 12.22666,-26.90625 27.28125,-26.90625 3.20154,0 6.27148,0.56106 9.125,1.5625 l -77.68755,-66.81255 z"
         style="fill:#b3b3b3;stroke:#000000;stroke-width:6.94216156;stroke-linecap:butt;stroke-linejoin:miter;stroke-miterlimit:4;stroke-opacity:1;stroke-dasharray:none;display:inline" />
      <path
         inkscape:connector-curvature="0"
         style="fill:#b3b3b3;stroke:#000000;stroke-width:6.94216156;stroke-linecap:butt;stroke-linejoin:miter;stroke-miterlimit:4;stroke-opacity:1;stroke-dasharray:none;display:inline"
         d="m 613.69939,522.30414 c 6.39886,0 11.80148,3.7675 13.59375,8.96875 l 37.34375,78.65625 0.0625,0.15625 c 1.1381,2.06945 1.8125,4.38327 1.8125,6.84375 0,8.61126 -7.8446,15.59375 -17.5,15.59375 -6.87189,0 -12.79915,-3.54428 -15.65625,-8.6875 l -0.0625,0.0312 -0.25,-0.625 c -0.38205,-0.76757 -0.69707,-1.5794 -0.9375,-2.40625 l -31.0625,-79.9687 c -1.00745,-1.74793 -1.59375,-3.74135 -1.59375,-5.84375 0,-7.03683 6.38885,-12.71875 14.25,-12.71875 z"
         id="path3432-6-5-7-6-2-1-3" />
      <path
         inkscape:connector-curvature="0"
         sodipodi:nodetypes="cccccscccssscc"
         style="fill:#b3b3b3;stroke:#000000;stroke-width:6.94216156;stroke-linecap:butt;stroke-linejoin:miter;stroke-miterlimit:4;stroke-opacity:1;stroke-dasharray:none;display:inline"
         d="m 628.35564,610.49164 4.09375,10.53125 c 0.24043,0.82685 0.55545,1.63868 0.9375,2.40625 l 0.25,0.625 0.0625,-0.0312 c 2.8571,5.14322 8.78436,8.6875 15.65625,8.6875 4.02413,0 7.72926,-1.21184 10.6875,-3.25 l -73.0625,78.96875 0.0625,-4.3125 c 0.006,-0.11275 -0.005,-0.23063 0,-0.34375 0.0151,-0.36789 0.0312,-0.75347 0.0312,-1.125 0,-14.85943 -12.22666,-26.90625 -27.28125,-26.90625 -3.20154,0 -6.27148,0.56106 -9.125,1.5625 l 77.6875,-66.8125 z"
         id="path3436-5-4-1-9-5-61-4" />
      <path
         inkscape:connector-curvature="0"
         id="rect3443-0-0-1-0-1-4-6"
         d="m 392.52345,764.45246 c -1.86497,1.78605 -3.11917,4.98914 -3.11917,8.71198 l 0,56.2319 c 0,5.66115 2.88941,10.19703 6.45668,10.19698 l 145.88375,0 c 3.56729,0 6.45668,-4.53582 6.45668,-10.19698 l 0,-56.2319 c 0,-3.70739 -1.23593,-6.92129 -3.08798,-8.71198 l -75.60876,0 -1.87151,0 -75.10969,0 z"
         style="fill:#b3b3b3;stroke:#000000;stroke-width:6.94216156;stroke-linecap:butt;stroke-linejoin:miter;stroke-miterlimit:4;stroke-opacity:1;stroke-dasharray:none;display:inline" />
    </g>
    <path
       sodipodi:type="arc"
       style="fill:#000000"
       id="path3449-99-9-0-1-3-3"
       sodipodi:cx="375.62003"
       sodipodi:cy="592.89587"
       sodipodi:rx="20.820885"
       sodipodi:ry="19.132706"
       d="m 396.44091,592.89587 c 0,10.56671 -9.32183,19.13271 -20.82088,19.13271 -11.49906,0 -20.82089,-8.566 -20.82089,-19.13271 0,-10.5667 9.32183,-19.1327 20.82089,-19.1327 11.49905,0 20.82088,8.566 20.82088,19.1327 z"
       transform="translate(367.63372,-443.88062)" />
    <path
       sodipodi:type="arc"
       style="fill:#008000;fill-rule:evenodd;stroke:#000000;stroke-width:1px;stroke-linecap:butt;stroke-linejoin:miter;stroke-opacity:1"
       id="path3445-7-0-9-6-1-1"
       sodipodi:cx="285.44308"
       sodipodi:cy="521.42963"
       sodipodi:rx="12.520667"
       sodipodi:ry="12.661348"
       d="m 297.96375,521.42963 c 0,6.99267 -5.60569,12.66134 -12.52067,12.66134 -6.91497,0 -12.52066,-5.66867 -12.52066,-12.66134 0,-6.99267 5.60569,-12.66135 12.52066,-12.66135 6.91498,0 12.52067,5.66868 12.52067,12.66135 z"
       transform="matrix(1.4029318,0,0,1.2428992,280.05712,-598.91187)" />
    <g
       id="g2946-4-2-6-6-9-8-7-8"
       transform="matrix(0.150498,0.09885172,-0.09885172,0.150498,614.47209,81.092398)"
       style="fill:#b3b3b3;stroke:#000000;stroke-width:6.94216156;stroke-miterlimit:4;stroke-opacity:1;stroke-dasharray:none">
      <path
         inkscape:connector-curvature="0"
         id="path3323-6-5-5-5-1-5-2-0"
         d="m 323.44346,522.30414 c -6.39886,0 -11.80148,3.7675 -13.59375,8.96875 l -37.34375,78.65625 -0.0625,0.15625 c -1.1381,2.06945 -1.8125,4.38327 -1.8125,6.84375 0,8.61126 7.8446,15.59375 17.5,15.59375 6.87189,0 12.79915,-3.54428 15.65625,-8.6875 l 0.0625,0.0312 0.25,-0.625 c 0.38205,-0.76757 0.69707,-1.5794 0.9375,-2.40625 l 31.0625,-79.96875 c 1.00745,-1.74793 1.59375,-3.74135 1.59375,-5.84375 0,-7.03683 -6.38885,-12.71875 -14.25,-12.71875 z"
         style="fill:#b3b3b3;stroke:#000000;stroke-width:6.94216156;stroke-linecap:butt;stroke-linejoin:miter;stroke-miterlimit:4;stroke-opacity:1;stroke-dasharray:none;display:inline" />
      <rect
         ry="7.7781744"
         y="663.52679"
         x="418.94543"
         height="58.336311"
         width="99.348503"
         id="rect3407-2-3-5-6-5-6-7-4"
         style="fill:#b3b3b3;stroke:#000000;stroke-width:6.94216156;stroke-linecap:butt;stroke-linejoin:miter;stroke-miterlimit:4;stroke-opacity:1;stroke-dasharray:none;display:inline" />
      <path
         inkscape:connector-curvature="0"
         id="path3413-5-6-0-1-5-7-3-0"
         d="m 377.34971,675.74164 c -15.05459,0 -27.28125,12.04682 -27.28125,26.90625 0,0.37153 0.0161,0.75711 0.0312,1.125 0.005,0.11312 -0.006,0.231 0,0.34375 l 0.625,45.3125 27.5625,14.875 89.34375,0 1.875,0 89.34375,0 27.5625,-14.875 0.625,-45.3125 c 0.006,-0.11275 -0.005,-0.23063 0,-0.34375 0.0151,-0.36789 0.0313,-0.75347 0.0312,-1.125 0,-14.85943 -12.22665,-26.90625 -27.28125,-26.90625 -8.9944,-10e-6 -16.96875,4.30284 -21.9375,10.9375 l -0.0625,-0.0312 -19.5,24.59375 0,2.84375 c -10e-6,4.03976 -3.03703,7.3531 -6.96875,7.75 -0.29294,0.0332 -0.60418,0.0312 -0.90625,0.0312 l -83.6875,0 c -1.34659,0 -2.61646,-0.34018 -3.71875,-0.9375 -0.44108,-0.23909 -0.86595,-0.52703 -1.25,-0.84375 -0.3779,-0.31162 -0.71853,-0.6543 -1.03125,-1.03125 -0.005,-0.006 0.005,-0.0251 0,-0.0312 -1.10785,-1.3435 -1.78125,-3.05226 -1.78125,-4.9375 l 0,-2.71875 -19.59375,-24.71875 -0.0625,0.0312 c -4.96874,-6.63466 -12.9431,-10.93751 -21.9375,-10.9375 z"
         style="fill:#b3b3b3;stroke:#000000;stroke-width:6.94216156;stroke-linecap:butt;stroke-linejoin:miter;stroke-miterlimit:4;stroke-opacity:1;stroke-dasharray:none;display:inline" />
      <path
         inkscape:connector-curvature="0"
         sodipodi:nodetypes="cccccscccssscc"
         id="path3379-1-5-8-9-3-1-9-2"
         d="m 308.78721,610.49164 -4.09375,10.53125 c -0.24043,0.82685 -0.55545,1.63868 -0.9375,2.40625 l -0.25,0.625 -0.0625,-0.0312 c -2.8571,5.14322 -8.78436,8.6875 -15.65625,8.6875 -4.02413,0 -7.72926,-1.21184 -10.6875,-3.25 l 73.0625,78.96875 -0.0625,-4.3125 c -0.006,-0.11275 0.005,-0.23063 0,-0.34375 -0.0151,-0.36789 -0.0312,-0.75347 -0.0312,-1.125 0,-14.85943 12.22666,-26.90625 27.28125,-26.90625 3.20154,0 6.27148,0.56106 9.125,1.5625 l -77.68755,-66.81255 z"
         style="fill:#b3b3b3;stroke:#000000;stroke-width:6.94216156;stroke-linecap:butt;stroke-linejoin:miter;stroke-miterlimit:4;stroke-opacity:1;stroke-dasharray:none;display:inline" />
      <path
         inkscape:connector-curvature="0"
         style="fill:#b3b3b3;stroke:#000000;stroke-width:6.94216156;stroke-linecap:butt;stroke-linejoin:miter;stroke-miterlimit:4;stroke-opacity:1;stroke-dasharray:none;display:inline"
         d="m 613.69939,522.30414 c 6.39886,0 11.80148,3.7675 13.59375,8.96875 l 37.34375,78.65625 0.0625,0.15625 c 1.1381,2.06945 1.8125,4.38327 1.8125,6.84375 0,8.61126 -7.8446,15.59375 -17.5,15.59375 -6.87189,0 -12.79915,-3.54428 -15.65625,-8.6875 l -0.0625,0.0312 -0.25,-0.625 c -0.38205,-0.76757 -0.69707,-1.5794 -0.9375,-2.40625 l -31.0625,-79.9687 c -1.00745,-1.74793 -1.59375,-3.74135 -1.59375,-5.84375 0,-7.03683 6.38885,-12.71875 14.25,-12.71875 z"
         id="path3432-6-5-7-6-2-7-0-6" />
      <path
         inkscape:connector-curvature="0"
         sodipodi:nodetypes="cccccscccssscc"
         style="fill:#b3b3b3;stroke:#000000;stroke-width:6.94216156;stroke-linecap:butt;stroke-linejoin:miter;stroke-miterlimit:4;stroke-opacity:1;stroke-dasharray:none;display:inline"
         d="m 628.35564,610.49164 4.09375,10.53125 c 0.24043,0.82685 0.55545,1.63868 0.9375,2.40625 l 0.25,0.625 0.0625,-0.0312 c 2.8571,5.14322 8.78436,8.6875 15.65625,8.6875 4.02413,0 7.72926,-1.21184 10.6875,-3.25 l -73.0625,78.96875 0.0625,-4.3125 c 0.006,-0.11275 -0.005,-0.23063 0,-0.34375 0.0151,-0.36789 0.0312,-0.75347 0.0312,-1.125 0,-14.85943 -12.22666,-26.90625 -27.28125,-26.90625 -3.20154,0 -6.27148,0.56106 -9.125,1.5625 l 77.6875,-66.8125 z"
         id="path3436-5-4-1-9-5-6-0-7" />
      <path
         inkscape:connector-curvature="0"
         id="rect3443-0-0-1-0-1-6-7-1"
         d="m 392.52345,764.45246 c -1.86497,1.78605 -3.11917,4.98914 -3.11917,8.71198 l 0,56.2319 c 0,5.66115 2.88941,10.19703 6.45668,10.19698 l 145.88375,0 c 3.56729,0 6.45668,-4.53582 6.45668,-10.19698 l 0,-56.2319 c 0,-3.70739 -1.23593,-6.92129 -3.08798,-8.71198 l -75.60876,0 -1.87151,0 -75.10969,0 z"
         style="fill:#b3b3b3;stroke:#000000;stroke-width:6.94216156;stroke-linecap:butt;stroke-linejoin:miter;stroke-miterlimit:4;stroke-opacity:1;stroke-dasharray:none;display:inline" />
    </g>
    <g
       id="g2946-4-2-6-6-9-7-8-6"
       transform="matrix(0.18004274,0.00243331,-0.00243331,0.18004274,598.97636,-42.18116)"
       style="fill:#b3b3b3;stroke:#000000;stroke-width:6.94216156;stroke-miterlimit:4;stroke-opacity:1;stroke-dasharray:none">
      <path
         inkscape:connector-curvature="0"
         id="path3323-6-5-5-5-1-4-8-2"
         d="m 323.44346,522.30414 c -6.39886,0 -11.80148,3.7675 -13.59375,8.96875 l -37.34375,78.65625 -0.0625,0.15625 c -1.1381,2.06945 -1.8125,4.38327 -1.8125,6.84375 0,8.61126 7.8446,15.59375 17.5,15.59375 6.87189,0 12.79915,-3.54428 15.65625,-8.6875 l 0.0625,0.0312 0.25,-0.625 c 0.38205,-0.76757 0.69707,-1.5794 0.9375,-2.40625 l 31.0625,-79.96875 c 1.00745,-1.74793 1.59375,-3.74135 1.59375,-5.84375 0,-7.03683 -6.38885,-12.71875 -14.25,-12.71875 z"
         style="fill:#b3b3b3;stroke:#000000;stroke-width:6.94216156;stroke-linecap:butt;stroke-linejoin:miter;stroke-miterlimit:4;stroke-opacity:1;stroke-dasharray:none;display:inline" />
      <rect
         ry="7.7781744"
         y="663.52679"
         x="418.94543"
         height="58.336311"
         width="99.348503"
         id="rect3407-2-3-5-6-5-4-4-4"
         style="fill:#b3b3b3;stroke:#000000;stroke-width:6.94216156;stroke-linecap:butt;stroke-linejoin:miter;stroke-miterlimit:4;stroke-opacity:1;stroke-dasharray:none;display:inline" />
      <path
         inkscape:connector-curvature="0"
         id="path3413-5-6-0-1-5-9-3-1"
         d="m 377.34971,675.74164 c -15.05459,0 -27.28125,12.04682 -27.28125,26.90625 0,0.37153 0.0161,0.75711 0.0312,1.125 0.005,0.11312 -0.006,0.231 0,0.34375 l 0.625,45.3125 27.5625,14.875 89.34375,0 1.875,0 89.34375,0 27.5625,-14.875 0.625,-45.3125 c 0.006,-0.11275 -0.005,-0.23063 0,-0.34375 0.0151,-0.36789 0.0313,-0.75347 0.0312,-1.125 0,-14.85943 -12.22665,-26.90625 -27.28125,-26.90625 -8.9944,-10e-6 -16.96875,4.30284 -21.9375,10.9375 l -0.0625,-0.0312 -19.5,24.59375 0,2.84375 c -10e-6,4.03976 -3.03703,7.3531 -6.96875,7.75 -0.29294,0.0332 -0.60418,0.0312 -0.90625,0.0312 l -83.6875,0 c -1.34659,0 -2.61646,-0.34018 -3.71875,-0.9375 -0.44108,-0.23909 -0.86595,-0.52703 -1.25,-0.84375 -0.3779,-0.31162 -0.71853,-0.6543 -1.03125,-1.03125 -0.005,-0.006 0.005,-0.0251 0,-0.0312 -1.10785,-1.3435 -1.78125,-3.05226 -1.78125,-4.9375 l 0,-2.71875 -19.59375,-24.71875 -0.0625,0.0312 c -4.96874,-6.63466 -12.9431,-10.93751 -21.9375,-10.9375 z"
         style="fill:#b3b3b3;stroke:#000000;stroke-width:6.94216156;stroke-linecap:butt;stroke-linejoin:miter;stroke-miterlimit:4;stroke-opacity:1;stroke-dasharray:none;display:inline" />
      <path
         inkscape:connector-curvature="0"
         sodipodi:nodetypes="cccccscccssscc"
         id="path3379-1-5-8-9-3-9-2-5"
         d="m 308.78721,610.49164 -4.09375,10.53125 c -0.24043,0.82685 -0.55545,1.63868 -0.9375,2.40625 l -0.25,0.625 -0.0625,-0.0312 c -2.8571,5.14322 -8.78436,8.6875 -15.65625,8.6875 -4.02413,0 -7.72926,-1.21184 -10.6875,-3.25 l 73.0625,78.96875 -0.0625,-4.3125 c -0.006,-0.11275 0.005,-0.23063 0,-0.34375 -0.0151,-0.36789 -0.0312,-0.75347 -0.0312,-1.125 0,-14.85943 12.22666,-26.90625 27.28125,-26.90625 3.20154,0 6.27148,0.56106 9.125,1.5625 l -77.68755,-66.81255 z"
         style="fill:#b3b3b3;stroke:#000000;stroke-width:6.94216156;stroke-linecap:butt;stroke-linejoin:miter;stroke-miterlimit:4;stroke-opacity:1;stroke-dasharray:none;display:inline" />
      <path
         inkscape:connector-curvature="0"
         style="fill:#b3b3b3;stroke:#000000;stroke-width:6.94216156;stroke-linecap:butt;stroke-linejoin:miter;stroke-miterlimit:4;stroke-opacity:1;stroke-dasharray:none;display:inline"
         d="m 613.69939,522.30414 c 6.39886,0 11.80148,3.7675 13.59375,8.96875 l 37.34375,78.65625 0.0625,0.15625 c 1.1381,2.06945 1.8125,4.38327 1.8125,6.84375 0,8.61126 -7.8446,15.59375 -17.5,15.59375 -6.87189,0 -12.79915,-3.54428 -15.65625,-8.6875 l -0.0625,0.0312 -0.25,-0.625 c -0.38205,-0.76757 -0.69707,-1.5794 -0.9375,-2.40625 l -31.0625,-79.9687 c -1.00745,-1.74793 -1.59375,-3.74135 -1.59375,-5.84375 0,-7.03683 6.38885,-12.71875 14.25,-12.71875 z"
         id="path3432-6-5-7-6-2-1-3-8" />
      <path
         inkscape:connector-curvature="0"
         sodipodi:nodetypes="cccccscccssscc"
         style="fill:#b3b3b3;stroke:#000000;stroke-width:6.94216156;stroke-linecap:butt;stroke-linejoin:miter;stroke-miterlimit:4;stroke-opacity:1;stroke-dasharray:none;display:inline"
         d="m 628.35564,610.49164 4.09375,10.53125 c 0.24043,0.82685 0.55545,1.63868 0.9375,2.40625 l 0.25,0.625 0.0625,-0.0312 c 2.8571,5.14322 8.78436,8.6875 15.65625,8.6875 4.02413,0 7.72926,-1.21184 10.6875,-3.25 l -73.0625,78.96875 0.0625,-4.3125 c 0.006,-0.11275 -0.005,-0.23063 0,-0.34375 0.0151,-0.36789 0.0312,-0.75347 0.0312,-1.125 0,-14.85943 -12.22666,-26.90625 -27.28125,-26.90625 -3.20154,0 -6.27148,0.56106 -9.125,1.5625 l 77.6875,-66.8125 z"
         id="path3436-5-4-1-9-5-61-4-7" />
      <path
         inkscape:connector-curvature="0"
         id="rect3443-0-0-1-0-1-4-6-7"
         d="m 392.52345,764.45246 c -1.86497,1.78605 -3.11917,4.98914 -3.11917,8.71198 l 0,56.2319 c 0,5.66115 2.88941,10.19703 6.45668,10.19698 l 145.88375,0 c 3.56729,0 6.45668,-4.53582 6.45668,-10.19698 l 0,-56.2319 c 0,-3.70739 -1.23593,-6.92129 -3.08798,-8.71198 l -75.60876,0 -1.87151,0 -75.10969,0 z"
         style="fill:#b3b3b3;stroke:#000000;stroke-width:6.94216156;stroke-linecap:butt;stroke-linejoin:miter;stroke-miterlimit:4;stroke-opacity:1;stroke-dasharray:none;display:inline" />
    </g>
  </g>
</svg>
