<?xml version="1.0" encoding="UTF-8" standalone="no"?>
<!-- Created with Inkscape (http://www.inkscape.org/) -->

<svg
   xmlns:dc="http://purl.org/dc/elements/1.1/"
   xmlns:cc="http://creativecommons.org/ns#"
   xmlns:rdf="http://www.w3.org/1999/02/22-rdf-syntax-ns#"
   xmlns:svg="http://www.w3.org/2000/svg"
   xmlns="http://www.w3.org/2000/svg"
   xmlns:sodipodi="http://sodipodi.sourceforge.net/DTD/sodipodi-0.dtd"
   xmlns:inkscape="http://www.inkscape.org/namespaces/inkscape"
   width="336.9859"
   height="192.63904"
   id="svg4639"
   version="1.1"
   inkscape:version="0.48.2 r9819"
   sodipodi:docname="New document 23">
  <defs
     id="defs4641" />
  <sodipodi:namedview
     id="base"
     pagecolor="#ffffff"
     bordercolor="#666666"
     borderopacity="1.0"
     inkscape:pageopacity="0.0"
     inkscape:pageshadow="2"
     inkscape:zoom="2.7361111"
     inkscape:cx="156.46781"
     inkscape:cy="104.42773"
     inkscape:document-units="px"
     inkscape:current-layer="layer1"
     showgrid="false"
     fit-margin-top="0"
     fit-margin-left="0"
     fit-margin-right="0"
     fit-margin-bottom="0"
     inkscape:window-width="1920"
     inkscape:window-height="1173"
     inkscape:window-x="1920"
     inkscape:window-y="0"
     inkscape:window-maximized="1" />
  <metadata
     id="metadata4644">
    <rdf:RDF>
      <cc:Work
         rdf:about="">
        <dc:format>image/svg+xml</dc:format>
        <dc:type
           rdf:resource="http://purl.org/dc/dcmitype/StillImage" />
        <dc:title></dc:title>
      </cc:Work>
    </rdf:RDF>
  </metadata>
  <g
     inkscape:label="Layer 1"
     inkscape:groupmode="layer"
     id="layer1"
     transform="translate(-278.32732,-311.69749)">
    <g
       id="g2946-4-8"
       transform="matrix(0.18005919,0,0,0.18005919,267.05798,233.20866)"
       style="fill:#b3b3b3;stroke:#000000;stroke-width:6.94216156;stroke-miterlimit:4;stroke-opacity:1;stroke-dasharray:none">
      <path
         inkscape:connector-curvature="0"
         id="path3323-6-4"
         d="m 323.44346,522.30414 c -6.39886,0 -11.80148,3.7675 -13.59375,8.96875 l -37.34375,78.65625 -0.0625,0.15625 c -1.1381,2.06945 -1.8125,4.38327 -1.8125,6.84375 0,8.61126 7.8446,15.59375 17.5,15.59375 6.87189,0 12.79915,-3.54428 15.65625,-8.6875 l 0.0625,0.0312 0.25,-0.625 c 0.38205,-0.76757 0.69707,-1.5794 0.9375,-2.40625 l 31.0625,-79.96875 c 1.00745,-1.74793 1.59375,-3.74135 1.59375,-5.84375 0,-7.03683 -6.38885,-12.71875 -14.25,-12.71875 z"
         style="fill:#b3b3b3;stroke:#000000;stroke-width:6.94216156;stroke-linecap:butt;stroke-linejoin:miter;stroke-miterlimit:4;stroke-opacity:1;stroke-dasharray:none;display:inline" />
      <rect
         ry="7.7781744"
         y="663.52679"
         x="418.94543"
         height="58.336311"
         width="99.348503"
         id="rect3407-2-31"
         style="fill:#b3b3b3;stroke:#000000;stroke-width:6.94216156;stroke-linecap:butt;stroke-linejoin:miter;stroke-miterlimit:4;stroke-opacity:1;stroke-dasharray:none;display:inline" />
      <path
         inkscape:connector-curvature="0"
         id="path3413-5-66"
         d="m 377.34971,675.74164 c -15.05459,0 -27.28125,12.04682 -27.28125,26.90625 0,0.37153 0.0161,0.75711 0.0312,1.125 0.005,0.11312 -0.006,0.231 0,0.34375 l 0.625,45.3125 27.5625,14.875 89.34375,0 1.875,0 89.34375,0 27.5625,-14.875 0.625,-45.3125 c 0.006,-0.11275 -0.005,-0.23063 0,-0.34375 0.0151,-0.36789 0.0313,-0.75347 0.0312,-1.125 0,-14.85943 -12.22665,-26.90625 -27.28125,-26.90625 -8.9944,-10e-6 -16.96875,4.30284 -21.9375,10.9375 l -0.0625,-0.0312 -19.5,24.59375 0,2.84375 c -10e-6,4.03976 -3.03703,7.3531 -6.96875,7.75 -0.29294,0.0332 -0.60418,0.0312 -0.90625,0.0312 l -83.6875,0 c -1.34659,0 -2.61646,-0.34018 -3.71875,-0.9375 -0.44108,-0.23909 -0.86595,-0.52703 -1.25,-0.84375 -0.3779,-0.31162 -0.71853,-0.6543 -1.03125,-1.03125 -0.005,-0.006 0.005,-0.0251 0,-0.0312 -1.10785,-1.3435 -1.78125,-3.05226 -1.78125,-4.9375 l 0,-2.71875 -19.59375,-24.71875 -0.0625,0.0312 c -4.96874,-6.63466 -12.9431,-10.93751 -21.9375,-10.9375 z"
         style="fill:#b3b3b3;stroke:#000000;stroke-width:6.94216156;stroke-linecap:butt;stroke-linejoin:miter;stroke-miterlimit:4;stroke-opacity:1;stroke-dasharray:none;display:inline" />
      <path
         inkscape:connector-curvature="0"
         sodipodi:nodetypes="cccccscccssscc"
         id="path3379-1-59"
         d="m 308.78721,610.49164 -4.09375,10.53125 c -0.24043,0.82685 -0.55545,1.63868 -0.9375,2.40625 l -0.25,0.625 -0.0625,-0.0312 c -2.8571,5.14322 -8.78436,8.6875 -15.65625,8.6875 -4.02413,0 -7.72926,-1.21184 -10.6875,-3.25 l 73.0625,78.96875 -0.0625,-4.3125 c -0.006,-0.11275 0.005,-0.23063 0,-0.34375 -0.0151,-0.36789 -0.0312,-0.75347 -0.0312,-1.125 0,-14.85943 12.22666,-26.90625 27.28125,-26.90625 3.20154,0 6.27148,0.56106 9.125,1.5625 l -77.68755,-66.81255 z"
         style="fill:#b3b3b3;stroke:#000000;stroke-width:6.94216156;stroke-linecap:butt;stroke-linejoin:miter;stroke-miterlimit:4;stroke-opacity:1;stroke-dasharray:none;display:inline" />
      <path
         inkscape:connector-curvature="0"
         style="fill:#b3b3b3;stroke:#000000;stroke-width:6.94216156;stroke-linecap:butt;stroke-linejoin:miter;stroke-miterlimit:4;stroke-opacity:1;stroke-dasharray:none;display:inline"
         d="m 613.69939,522.30414 c 6.39886,0 11.80148,3.7675 13.59375,8.96875 l 37.34375,78.65625 0.0625,0.15625 c 1.1381,2.06945 1.8125,4.38327 1.8125,6.84375 0,8.61126 -7.8446,15.59375 -17.5,15.59375 -6.87189,0 -12.79915,-3.54428 -15.65625,-8.6875 l -0.0625,0.0312 -0.25,-0.625 c -0.38205,-0.76757 -0.69707,-1.5794 -0.9375,-2.40625 l -31.0625,-79.9687 c -1.00745,-1.74793 -1.59375,-3.74135 -1.59375,-5.84375 0,-7.03683 6.38885,-12.71875 14.25,-12.71875 z"
         id="path3432-6-91" />
      <path
         inkscape:connector-curvature="0"
         sodipodi:nodetypes="cccccscccssscc"
         style="fill:#b3b3b3;stroke:#000000;stroke-width:6.94216156;stroke-linecap:butt;stroke-linejoin:miter;stroke-miterlimit:4;stroke-opacity:1;stroke-dasharray:none;display:inline"
         d="m 628.35564,610.49164 4.09375,10.53125 c 0.24043,0.82685 0.55545,1.63868 0.9375,2.40625 l 0.25,0.625 0.0625,-0.0312 c 2.8571,5.14322 8.78436,8.6875 15.65625,8.6875 4.02413,0 7.72926,-1.21184 10.6875,-3.25 l -73.0625,78.96875 0.0625,-4.3125 c 0.006,-0.11275 -0.005,-0.23063 0,-0.34375 0.0151,-0.36789 0.0312,-0.75347 0.0312,-1.125 0,-14.85943 -12.22666,-26.90625 -27.28125,-26.90625 -3.20154,0 -6.27148,0.56106 -9.125,1.5625 l 77.6875,-66.8125 z"
         id="path3436-5-2" />
      <path
         inkscape:connector-curvature="0"
         id="rect3443-0-1"
         d="m 392.52345,764.45246 c -1.86497,1.78605 -3.11917,4.98914 -3.11917,8.71198 l 0,56.2319 c 0,5.66115 2.88941,10.19703 6.45668,10.19698 l 145.88375,0 c 3.56729,0 6.45668,-4.53582 6.45668,-10.19698 l 0,-56.2319 c 0,-3.70739 -1.23593,-6.92129 -3.08798,-8.71198 l -75.60876,0 -1.87151,0 -75.10969,0 z"
         style="fill:#b3b3b3;stroke:#000000;stroke-width:6.94216156;stroke-linecap:butt;stroke-linejoin:miter;stroke-miterlimit:4;stroke-opacity:1;stroke-dasharray:none;display:inline" />
    </g>
    <path
       sodipodi:type="arc"
       style="fill:#008000;fill-rule:evenodd;stroke:#000000;stroke-width:1px;stroke-linecap:butt;stroke-linejoin:miter;stroke-opacity:1"
       id="path3445-7"
       sodipodi:cx="285.44308"
       sodipodi:cy="521.42963"
       sodipodi:rx="12.520667"
       sodipodi:ry="12.661348"
       d="m 297.96375,521.42963 c 0,6.99267 -5.60569,12.66134 -12.52067,12.66134 -6.91497,0 -12.52066,-5.66867 -12.52066,-12.66134 0,-6.99267 5.60569,-12.66135 12.52066,-12.66135 6.91498,0 12.52067,5.66868 12.52067,12.66135 z"
       transform="matrix(1.4029318,0,0,1.2428992,-47.564469,-317.68751)" />
    <path
       style="fill:#ececec;stroke:none"
       d="m 305.5422,465.03562 c -14.23699,-8.59982 -26.43772,-15.99337 -27.11274,-16.43011 -0.80026,-0.51778 3.11585,-10.06451 11.25453,-27.43639 9.89009,-21.1102 13.99607,-31.48321 19.77426,-49.95599 l 7.29241,-23.31372 6.49439,7.06109 c 5.28972,5.75129 6.4944,7.7814 6.4944,10.94427 0,3.28113 0.52347,4.08076 3.37636,5.1576 3.21515,1.21359 3.37636,1.58506 3.37636,7.78041 l 0,6.50598 15.19361,0 15.19361,0 0,-6.52663 c 0,-6.43739 0.0539,-6.5461 3.93908,-7.95102 3.50347,-1.26686 3.93909,-1.87016 3.93909,-5.45527 0,-3.24211 1.02043,-5.12182 5.21475,-9.60588 4.06754,-4.34853 5.07154,-4.99319 4.56376,-2.93035 -0.35805,1.45456 -3.6913,16.5929 -7.40722,33.64076 l -6.75622,30.99611 -19.31665,31.46655 c -10.62416,17.30659 -19.38679,31.5165 -19.47251,31.57757 -0.0857,0.0611 -11.80428,-6.92517 -26.04127,-15.52498 z"
       id="path4536-6-1-1"
       inkscape:connector-curvature="0" />
    <path
       sodipodi:type="arc"
       style="fill:#000000"
       id="path3449-99-9-0"
       sodipodi:cx="375.62003"
       sodipodi:cy="592.89587"
       sodipodi:rx="20.820885"
       sodipodi:ry="19.132706"
       d="m 396.44091,592.89587 c 0,10.56671 -9.32183,19.13271 -20.82088,19.13271 -11.49906,0 -20.82089,-8.566 -20.82089,-19.13271 0,-10.5667 9.32183,-19.1327 20.82089,-19.1327 11.49905,0 20.82088,8.566 20.82088,19.1327 z"
       transform="translate(16.176928,-180.1276)" />
    <path
       sodipodi:type="arc"
       style="fill:#008000;fill-rule:evenodd;stroke:#000000;stroke-width:1px;stroke-linecap:butt;stroke-linejoin:miter;stroke-opacity:1"
       id="path3445-7-3"
       sodipodi:cx="285.44308"
       sodipodi:cy="521.42963"
       sodipodi:rx="12.520667"
       sodipodi:ry="12.661348"
       d="m 297.96375,521.42963 c 0,6.99267 -5.60569,12.66134 -12.52067,12.66134 -6.91497,0 -12.52066,-5.66867 -12.52066,-12.66134 0,-6.99267 5.60569,-12.66135 12.52066,-12.66135 6.91498,0 12.52067,5.66868 12.52067,12.66135 z"
       transform="matrix(1.4029318,0,0,1.2428992,155.1309,-319.98995)" />
    <path
       style="fill:#ececec;stroke:none"
       d="m 508.23757,462.73318 c -14.23699,-8.59982 -26.43772,-15.99337 -27.11274,-16.43011 -0.80026,-0.51778 3.11585,-10.06451 11.25453,-27.43639 9.89009,-21.1102 13.99607,-31.48321 19.77426,-49.95599 l 7.29241,-23.31372 6.49439,7.06109 c 5.28972,5.75129 6.4944,7.7814 6.4944,10.94427 0,3.28113 0.52347,4.08076 3.37636,5.1576 3.21515,1.21359 3.37636,1.58506 3.37636,7.78041 l 0,6.50598 15.19361,0 15.19361,0 0,-6.52663 c 0,-6.43739 0.0539,-6.5461 3.93908,-7.95102 3.50347,-1.26686 3.93909,-1.87016 3.93909,-5.45527 0,-3.24211 1.02043,-5.12182 5.21475,-9.60588 4.06754,-4.34853 5.07154,-4.99319 4.56376,-2.93035 -0.35805,1.45456 -3.6913,16.5929 -7.40722,33.64076 l -6.75622,30.99611 -19.31665,31.46655 c -10.62416,17.30659 -19.38679,31.5165 -19.47251,31.57757 -0.0857,0.0611 -11.80428,-6.92517 -26.04127,-15.52498 z"
       id="path4536-6-1-1-9"
       inkscape:connector-curvature="0" />
    <path
       sodipodi:type="arc"
       style="fill:#000000"
       id="path3449-99-9-0-8"
       sodipodi:cx="375.62003"
       sodipodi:cy="592.89587"
       sodipodi:rx="20.820885"
       sodipodi:ry="19.132706"
       d="m 396.44091,592.89587 c 0,10.56671 -9.32183,19.13271 -20.82088,19.13271 -11.49906,0 -20.82089,-8.566 -20.82089,-19.13271 0,-10.5667 9.32183,-19.1327 20.82089,-19.1327 11.49905,0 20.82088,8.566 20.82088,19.1327 z"
       transform="translate(218.8723,-182.43004)" />
    <g
       id="g2946-4-2-1-7"
       transform="matrix(0.150498,0.09885172,-0.09885172,0.150498,495.09356,323.67348)"
       style="fill:#b3b3b3;stroke:#000000;stroke-width:6.94216156;stroke-miterlimit:4;stroke-opacity:1;stroke-dasharray:none">
      <path
         inkscape:connector-curvature="0"
         id="path3323-6-5-4-0"
         d="m 323.44346,522.30414 c -6.39886,0 -11.80148,3.7675 -13.59375,8.96875 l -37.34375,78.65625 -0.0625,0.15625 c -1.1381,2.06945 -1.8125,4.38327 -1.8125,6.84375 0,8.61126 7.8446,15.59375 17.5,15.59375 6.87189,0 12.79915,-3.54428 15.65625,-8.6875 l 0.0625,0.0312 0.25,-0.625 c 0.38205,-0.76757 0.69707,-1.5794 0.9375,-2.40625 l 31.0625,-79.96875 c 1.00745,-1.74793 1.59375,-3.74135 1.59375,-5.84375 0,-7.03683 -6.38885,-12.71875 -14.25,-12.71875 z"
         style="fill:#b3b3b3;stroke:#000000;stroke-width:6.94216156;stroke-linecap:butt;stroke-linejoin:miter;stroke-miterlimit:4;stroke-opacity:1;stroke-dasharray:none;display:inline" />
      <rect
         ry="7.7781744"
         y="663.52679"
         x="418.94543"
         height="58.336311"
         width="99.348503"
         id="rect3407-2-3-56-1"
         style="fill:#b3b3b3;stroke:#000000;stroke-width:6.94216156;stroke-linecap:butt;stroke-linejoin:miter;stroke-miterlimit:4;stroke-opacity:1;stroke-dasharray:none;display:inline" />
      <path
         inkscape:connector-curvature="0"
         id="path3413-5-6-6-1"
         d="m 377.34971,675.74164 c -15.05459,0 -27.28125,12.04682 -27.28125,26.90625 0,0.37153 0.0161,0.75711 0.0312,1.125 0.005,0.11312 -0.006,0.231 0,0.34375 l 0.625,45.3125 27.5625,14.875 89.34375,0 1.875,0 89.34375,0 27.5625,-14.875 0.625,-45.3125 c 0.006,-0.11275 -0.005,-0.23063 0,-0.34375 0.0151,-0.36789 0.0313,-0.75347 0.0312,-1.125 0,-14.85943 -12.22665,-26.90625 -27.28125,-26.90625 -8.9944,-10e-6 -16.96875,4.30284 -21.9375,10.9375 l -0.0625,-0.0312 -19.5,24.59375 0,2.84375 c -10e-6,4.03976 -3.03703,7.3531 -6.96875,7.75 -0.29294,0.0332 -0.60418,0.0312 -0.90625,0.0312 l -83.6875,0 c -1.34659,0 -2.61646,-0.34018 -3.71875,-0.9375 -0.44108,-0.23909 -0.86595,-0.52703 -1.25,-0.84375 -0.3779,-0.31162 -0.71853,-0.6543 -1.03125,-1.03125 -0.005,-0.006 0.005,-0.0251 0,-0.0312 -1.10785,-1.3435 -1.78125,-3.05226 -1.78125,-4.9375 l 0,-2.71875 -19.59375,-24.71875 -0.0625,0.0312 c -4.96874,-6.63466 -12.9431,-10.93751 -21.9375,-10.9375 z"
         style="fill:#b3b3b3;stroke:#000000;stroke-width:6.94216156;stroke-linecap:butt;stroke-linejoin:miter;stroke-miterlimit:4;stroke-opacity:1;stroke-dasharray:none;display:inline" />
      <path
         inkscape:connector-curvature="0"
         sodipodi:nodetypes="cccccscccssscc"
         id="path3379-1-5-7-7"
         d="m 308.78721,610.49164 -4.09375,10.53125 c -0.24043,0.82685 -0.55545,1.63868 -0.9375,2.40625 l -0.25,0.625 -0.0625,-0.0312 c -2.8571,5.14322 -8.78436,8.6875 -15.65625,8.6875 -4.02413,0 -7.72926,-1.21184 -10.6875,-3.25 l 73.0625,78.96875 -0.0625,-4.3125 c -0.006,-0.11275 0.005,-0.23063 0,-0.34375 -0.0151,-0.36789 -0.0312,-0.75347 -0.0312,-1.125 0,-14.85943 12.22666,-26.90625 27.28125,-26.90625 3.20154,0 6.27148,0.56106 9.125,1.5625 l -77.68755,-66.81255 z"
         style="fill:#b3b3b3;stroke:#000000;stroke-width:6.94216156;stroke-linecap:butt;stroke-linejoin:miter;stroke-miterlimit:4;stroke-opacity:1;stroke-dasharray:none;display:inline" />
      <path
         inkscape:connector-curvature="0"
         style="fill:#b3b3b3;stroke:#000000;stroke-width:6.94216156;stroke-linecap:butt;stroke-linejoin:miter;stroke-miterlimit:4;stroke-opacity:1;stroke-dasharray:none;display:inline"
         d="m 613.69939,522.30414 c 6.39886,0 11.80148,3.7675 13.59375,8.96875 l 37.34375,78.65625 0.0625,0.15625 c 1.1381,2.06945 1.8125,4.38327 1.8125,6.84375 0,8.61126 -7.8446,15.59375 -17.5,15.59375 -6.87189,0 -12.79915,-3.54428 -15.65625,-8.6875 l -0.0625,0.0312 -0.25,-0.625 c -0.38205,-0.76757 -0.69707,-1.5794 -0.9375,-2.40625 l -31.0625,-79.9687 c -1.00745,-1.74793 -1.59375,-3.74135 -1.59375,-5.84375 0,-7.03683 6.38885,-12.71875 14.25,-12.71875 z"
         id="path3432-6-5-9-1" />
      <path
         inkscape:connector-curvature="0"
         sodipodi:nodetypes="cccccscccssscc"
         style="fill:#b3b3b3;stroke:#000000;stroke-width:6.94216156;stroke-linecap:butt;stroke-linejoin:miter;stroke-miterlimit:4;stroke-opacity:1;stroke-dasharray:none;display:inline"
         d="m 628.35564,610.49164 4.09375,10.53125 c 0.24043,0.82685 0.55545,1.63868 0.9375,2.40625 l 0.25,0.625 0.0625,-0.0312 c 2.8571,5.14322 8.78436,8.6875 15.65625,8.6875 4.02413,0 7.72926,-1.21184 10.6875,-3.25 l -73.0625,78.96875 0.0625,-4.3125 c 0.006,-0.11275 -0.005,-0.23063 0,-0.34375 0.0151,-0.36789 0.0312,-0.75347 0.0312,-1.125 0,-14.85943 -12.22666,-26.90625 -27.28125,-26.90625 -3.20154,0 -6.27148,0.56106 -9.125,1.5625 l 77.6875,-66.8125 z"
         id="path3436-5-4-06-8" />
      <path
         inkscape:connector-curvature="0"
         id="rect3443-0-0-37-4"
         d="m 392.52345,764.45246 c -1.86497,1.78605 -3.11917,4.98914 -3.11917,8.71198 l 0,56.2319 c 0,5.66115 2.88941,10.19703 6.45668,10.19698 l 145.88375,0 c 3.56729,0 6.45668,-4.53582 6.45668,-10.19698 l 0,-56.2319 c 0,-3.70739 -1.23593,-6.92129 -3.08798,-8.71198 l -75.60876,0 -1.87151,0 -75.10969,0 z"
         style="fill:#b3b3b3;stroke:#000000;stroke-width:6.94216156;stroke-linecap:butt;stroke-linejoin:miter;stroke-miterlimit:4;stroke-opacity:1;stroke-dasharray:none;display:inline" />
    </g>
    <path
       sodipodi:type="arc"
       style="fill:#000000"
       id="path3449-99-9-0-8-0"
       sodipodi:cx="375.62003"
       sodipodi:cy="592.89587"
       sodipodi:rx="20.820885"
       sodipodi:ry="19.132706"
       d="m 396.44091,592.89587 c 0,10.56671 -9.32183,19.13271 -20.82088,19.13271 -11.49906,0 -20.82089,-8.566 -20.82089,-19.13271 0,-10.5667 9.32183,-19.1327 20.82089,-19.1327 11.49905,0 20.82088,8.566 20.82088,19.1327 z"
       transform="translate(203.54748,-181.22404)" />
    <path
       sodipodi:type="arc"
       style="fill:#000000"
       id="path3449-99-9-0-8-7"
       sodipodi:cx="375.62003"
       sodipodi:cy="592.89587"
       sodipodi:rx="20.820885"
       sodipodi:ry="19.132706"
       d="m 396.44091,592.89587 c 0,10.56671 -9.32183,19.13271 -20.82088,19.13271 -11.49906,0 -20.82089,-8.566 -20.82089,-19.13271 0,-10.5667 9.32183,-19.1327 20.82089,-19.1327 11.49905,0 20.82088,8.566 20.82088,19.1327 z"
       transform="translate(193.67946,-176.1073)" />
    <path
       sodipodi:type="arc"
       style="fill:#000000"
       id="path3449-99-9-0-8-6"
       sodipodi:cx="375.62003"
       sodipodi:cy="592.89587"
       sodipodi:rx="20.820885"
       sodipodi:ry="19.132706"
       d="m 396.44091,592.89587 c 0,10.56671 -9.32183,19.13271 -20.82088,19.13271 -11.49906,0 -20.82089,-8.566 -20.82089,-19.13271 0,-10.5667 9.32183,-19.1327 20.82089,-19.1327 11.49905,0 20.82088,8.566 20.82088,19.1327 z"
       transform="translate(177.96373,-168.43217)" />
    <path
       sodipodi:type="arc"
       style="fill:#000000"
       id="path3449-99-9-0-8-9"
       sodipodi:cx="375.62003"
       sodipodi:cy="592.89587"
       sodipodi:rx="20.820885"
       sodipodi:ry="19.132706"
       d="m 396.44091,592.89587 c 0,10.56671 -9.32183,19.13271 -20.82088,19.13271 -11.49906,0 -20.82089,-8.566 -20.82089,-19.13271 0,-10.5667 9.32183,-19.1327 20.82089,-19.1327 11.49905,0 20.82088,8.566 20.82088,19.1327 z"
       transform="translate(168.82668,-157.83318)" />
    <path
       sodipodi:type="arc"
       style="fill:#000000"
       id="path3449-99-9-0-8-4"
       sodipodi:cx="375.62003"
       sodipodi:cy="592.89587"
       sodipodi:rx="20.820885"
       sodipodi:ry="19.132706"
       d="m 396.44091,592.89587 c 0,10.56671 -9.32183,19.13271 -20.82088,19.13271 -11.49906,0 -20.82089,-8.566 -20.82089,-19.13271 0,-10.5667 9.32183,-19.1327 20.82089,-19.1327 11.49905,0 20.82088,8.566 20.82088,19.1327 z"
       transform="translate(162.97896,-150.15805)" />
    <path
       style="fill:#ececec;stroke:none"
       d="m 519.59391,345.51954 67.61421,3.65483 -8.04061,34.72081 -71.63452,-1.82741 z"
       id="path4930"
       inkscape:connector-curvature="0" />
  </g>
</svg>
